<?xml version="1.0" encoding="UTF-8" standalone="no"?>
<!DOCTYPE svg PUBLIC "-//W3C//DTD SVG 1.1//EN"
 "http://www.w3.org/Graphics/SVG/1.1/DTD/svg11.dtd">
<!-- Generated by graphviz version 2.43.0 (0)
 -->
<!-- Title: NestedCV Pages: 1 -->
<svg width="485pt" height="1000pt"
 viewBox="0.00 0.00 485.00 1000.00" xmlns="http://www.w3.org/2000/svg" xmlns:xlink="http://www.w3.org/1999/xlink">
<g id="graph0" class="graph" transform="scale(1 1) rotate(0) translate(36 964)">
<title>NestedCV</title>
<polygon fill="white" stroke="transparent" points="-36,36 -36,-964 449,-964 449,36 -36,36"/>
<text text-anchor="start" x="8" y="-913.8" font-family="Times New Roman" font-weight="bold" font-size="14.00">Nested Cross&#45;Validation (İç İçe Çapraz Doğrulama)</text>
<g id="clust1" class="cluster">
<title>cluster_dis</title>
<path fill="#e8f5e9" stroke="#2e7d32" stroke-width="2" d="M31.5,-8C31.5,-8 381.5,-8 381.5,-8 387.5,-8 393.5,-14 393.5,-20 393.5,-20 393.5,-809 393.5,-809 393.5,-815 387.5,-821 381.5,-821 381.5,-821 31.5,-821 31.5,-821 25.5,-821 19.5,-815 19.5,-809 19.5,-809 19.5,-20 19.5,-20 19.5,-14 25.5,-8 31.5,-8"/>
<text text-anchor="start" x="122" y="-808.4" font-family="Times New Roman" font-weight="bold" font-size="12.00">DIŞ DÖNGÜ (Outer Loop)</text>
<text text-anchor="start" x="113.5" y="-796.4" font-family="Times New Roman" font-size="12.00">Genelleme performansını ölçer</text>
</g>
<g id="clust2" class="cluster">
<title>cluster_iterasyon</title>
<path fill="#fff8e1" stroke="#f57c00" stroke-width="1.5" d="M39.5,-113C39.5,-113 373.5,-113 373.5,-113 379.5,-113 385.5,-119 385.5,-125 385.5,-125 385.5,-685 385.5,-685 385.5,-691 379.5,-697 373.5,-697 373.5,-697 39.5,-697 39.5,-697 33.5,-697 27.5,-691 27.5,-685 27.5,-685 27.5,-125 27.5,-125 27.5,-119 33.5,-113 39.5,-113"/>
<text text-anchor="start" x="99.5" y="-685.2" font-family="Times New Roman" font-weight="bold" font-size="11.00">Her iterasyon i için (i = 1, 2, ..., K)</text>
</g>
<g id="clust3" class="cluster">
<title>cluster_ic</title>
<path fill="#e3f2fd" stroke="#1565c0" stroke-width="1.5" d="M47.5,-408C47.5,-408 239.5,-408 239.5,-408 245.5,-408 251.5,-414 251.5,-420 251.5,-420 251.5,-573 251.5,-573 251.5,-579 245.5,-585 239.5,-585 239.5,-585 47.5,-585 47.5,-585 41.5,-585 35.5,-579 35.5,-573 35.5,-573 35.5,-420 35.5,-420 35.5,-414 41.5,-408 47.5,-408"/>
<text text-anchor="start" x="73.5" y="-573.2" font-family="Times New Roman" font-weight="bold" font-size="11.00">İÇ DÖNGÜ (Inner Loop)</text>
<text text-anchor="start" x="80" y="-562.2" font-family="Times New Roman" font-size="11.00">Hiperparametre seçimi</text>
</g>
<!-- veri -->
<g id="node1" class="node">
<title>veri</title>
<path fill="#e8e8e8" stroke="#404040" stroke-width="1.5" d="M293,-905C293,-905 228,-905 228,-905 222,-905 216,-899 216,-893 216,-893 216,-881 216,-881 216,-875 222,-869 228,-869 228,-869 293,-869 293,-869 299,-869 305,-875 305,-881 305,-881 305,-893 305,-893 305,-899 299,-905 293,-905"/>
<text text-anchor="middle" x="260.5" y="-884.2" font-family="Times New Roman" font-size="11.00">Tüm Veri Seti</text>
</g>
<!-- dis_bolunme -->
<g id="node2" class="node">
<title>dis_bolunme</title>
<path fill="#c8e6c9" stroke="#388e3c" stroke-width="1.5" d="M314,-781C314,-781 207,-781 207,-781 201,-781 195,-775 195,-769 195,-769 195,-757 195,-757 195,-751 201,-745 207,-745 207,-745 314,-745 314,-745 320,-745 326,-751 326,-757 326,-757 326,-769 326,-769 326,-775 320,-781 314,-781"/>
<text text-anchor="start" x="203" y="-765.2" font-family="Times New Roman" font-size="11.00">Veriyi K katmana böl</text>
<text text-anchor="start" x="233" y="-755.8" font-family="Times New Roman" font-size="9.00">(örn: K=10)</text>
</g>
<!-- veri&#45;&gt;dis_bolunme -->
<g id="edge1" class="edge">
<title>veri&#45;&gt;dis_bolunme</title>
<path fill="none" stroke="black" stroke-width="1.2" d="M260.5,-868.78C260.5,-848.62 260.5,-814.96 260.5,-791.25"/>
<polygon fill="black" stroke="black" stroke-width="1.2" points="264,-791.13 260.5,-781.13 257,-791.13 264,-791.13"/>
<text text-anchor="middle" x="275.5" y="-832" font-family="Times New Roman" font-size="10.00"> &#160;Girdi</text>
</g>
<!-- ayrim -->
<g id="node3" class="node">
<title>ayrim</title>
<path fill="#ffe082" stroke="#ff8f00" stroke-width="1.5" d="M325.5,-669C325.5,-669 195.5,-669 195.5,-669 189.5,-669 183.5,-663 183.5,-657 183.5,-657 183.5,-645 183.5,-645 183.5,-639 189.5,-633 195.5,-633 195.5,-633 325.5,-633 325.5,-633 331.5,-633 337.5,-639 337.5,-645 337.5,-645 337.5,-657 337.5,-657 337.5,-663 331.5,-669 325.5,-669"/>
<text text-anchor="start" x="221" y="-654.2" font-family="Times New Roman" font-size="11.00">Test: Katman i</text>
<text text-anchor="start" x="191.5" y="-642.2" font-family="Times New Roman" font-size="11.00">Eğitim: Kalan K&#45;1 katman</text>
</g>
<!-- dis_bolunme&#45;&gt;ayrim -->
<g id="edge2" class="edge">
<title>dis_bolunme&#45;&gt;ayrim</title>
<path fill="none" stroke="black" stroke-width="1.2" d="M260.5,-744.81C260.5,-727.21 260.5,-699.61 260.5,-679.07"/>
<polygon fill="black" stroke="black" stroke-width="1.2" points="264,-679.07 260.5,-669.07 257,-679.07 264,-679.07"/>
<text text-anchor="middle" x="302.5" y="-708" font-family="Times New Roman" font-size="10.00"> &#160;Her katman için</text>
</g>
<!-- grid_search -->
<g id="node4" class="node">
<title>grid_search</title>
<path fill="#bbdefb" stroke="#1976d2" stroke-width="1.5" d="M231,-547C231,-547 56,-547 56,-547 50,-547 44,-541 44,-535 44,-535 44,-523 44,-523 44,-517 50,-511 56,-511 56,-511 231,-511 231,-511 237,-511 243,-517 243,-523 243,-523 243,-535 243,-535 243,-541 237,-547 231,-547"/>
<text text-anchor="start" x="62.5" y="-531.2" font-family="Times New Roman" font-size="11.00">Grid Search / Random Search</text>
<text text-anchor="start" x="52" y="-521.8" font-family="Times New Roman" font-size="9.00">Eğitim verisi üzerinde çapraz doğrulama</text>
</g>
<!-- ayrim&#45;&gt;grid_search -->
<g id="edge3" class="edge">
<title>ayrim&#45;&gt;grid_search</title>
<path fill="none" stroke="black" stroke-width="1.2" d="M243.74,-632.81C223.75,-612.31 190.21,-577.91 167.49,-554.6"/>
<polygon fill="black" stroke="black" stroke-width="1.2" points="169.72,-551.88 160.23,-547.16 164.71,-556.76 169.72,-551.88"/>
<text text-anchor="middle" x="245.5" y="-596" font-family="Times New Roman" font-size="10.00"> &#160;Eğitim verisi</text>
</g>
<!-- model_test -->
<g id="node7" class="node">
<title>model_test</title>
<path fill="#ffcc80" stroke="#ef6c00" stroke-width="1.5" d="M315,-252C315,-252 202,-252 202,-252 196,-252 190,-246 190,-240 190,-240 190,-228 190,-228 190,-222 196,-216 202,-216 202,-216 315,-216 315,-216 321,-216 327,-222 327,-228 327,-228 327,-240 327,-240 327,-246 321,-252 315,-252"/>
<text text-anchor="start" x="198" y="-237.2" font-family="Times New Roman" font-size="11.00">Test katmanı üzerinde</text>
<text text-anchor="start" x="217" y="-225.2" font-family="Times New Roman" font-size="11.00">performans ölç</text>
</g>
<!-- ayrim&#45;&gt;model_test -->
<g id="edge6" class="edge">
<title>ayrim&#45;&gt;model_test</title>
<path fill="none" stroke="#666666" stroke-width="1.2" stroke-dasharray="5,2" d="M275.89,-632.7C293.96,-610.55 321.5,-570.2 321.5,-530 321.5,-530 321.5,-530 321.5,-328 321.5,-301.45 303.68,-276.83 287,-259.61"/>
<polygon fill="#666666" stroke="#666666" stroke-width="1.2" points="289.07,-256.74 279.48,-252.23 284.17,-261.73 289.07,-256.74"/>
<text text-anchor="middle" x="349.5" y="-431.5" font-family="Times New Roman" font-size="10.00"> &#160;Test verisi</text>
</g>
<!-- en_iyi_param -->
<g id="node5" class="node">
<title>en_iyi_param</title>
<path fill="#90caf9" stroke="#1976d2" stroke-width="1.5" d="M223,-452C223,-452 56,-452 56,-452 50,-452 44,-446 44,-440 44,-440 44,-428 44,-428 44,-422 50,-416 56,-416 56,-416 223,-416 223,-416 229,-416 235,-422 235,-428 235,-428 235,-440 235,-440 235,-446 229,-452 223,-452"/>
<text text-anchor="middle" x="139.5" y="-431.2" font-family="Times New Roman" font-size="11.00">En iyi hiperparametreleri belirle</text>
</g>
<!-- grid_search&#45;&gt;en_iyi_param -->
<g id="edge4" class="edge">
<title>grid_search&#45;&gt;en_iyi_param</title>
<path fill="none" stroke="black" stroke-width="1.2" d="M142.77,-510.94C142.18,-497.39 141.36,-478.18 140.68,-462.47"/>
<polygon fill="black" stroke="black" stroke-width="1.2" points="144.17,-462.1 140.24,-452.26 137.18,-462.41 144.17,-462.1"/>
</g>
<!-- model_egit -->
<g id="node6" class="node">
<title>model_egit</title>
<path fill="#ffe082" stroke="#ff8f00" stroke-width="1.5" d="M247.5,-347C247.5,-347 139.5,-347 139.5,-347 133.5,-347 127.5,-341 127.5,-335 127.5,-335 127.5,-323 127.5,-323 127.5,-317 133.5,-311 139.5,-311 139.5,-311 247.5,-311 247.5,-311 253.5,-311 259.5,-317 259.5,-323 259.5,-323 259.5,-335 259.5,-335 259.5,-341 253.5,-347 247.5,-347"/>
<text text-anchor="start" x="135.5" y="-332.2" font-family="Times New Roman" font-size="11.00">En iyi parametrelerle</text>
<text text-anchor="start" x="162.5" y="-320.2" font-family="Times New Roman" font-size="11.00">modeli eğit</text>
</g>
<!-- en_iyi_param&#45;&gt;model_egit -->
<g id="edge5" class="edge">
<title>en_iyi_param&#45;&gt;model_egit</title>
<path fill="none" stroke="black" stroke-width="1.2" d="M148.42,-415.99C156.98,-399.67 170.02,-374.78 179.88,-355.97"/>
<polygon fill="black" stroke="black" stroke-width="1.2" points="183.03,-357.52 184.57,-347.03 176.83,-354.27 183.03,-357.52"/>
<text text-anchor="middle" x="202.5" y="-379" font-family="Times New Roman" font-size="10.00"> &#160;Parametreler</text>
</g>
<!-- model_egit&#45;&gt;model_test -->
<g id="edge7" class="edge">
<title>model_egit&#45;&gt;model_test</title>
<path fill="none" stroke="black" stroke-width="1.2" d="M205.42,-310.94C215.26,-296.87 229.36,-276.69 240.56,-260.67"/>
<polygon fill="black" stroke="black" stroke-width="1.2" points="243.57,-262.47 246.43,-252.26 237.84,-258.46 243.57,-262.47"/>
</g>
<!-- skor -->
<g id="node8" class="node">
<title>skor</title>
<ellipse fill="#ffb74d" stroke="#e65100" stroke-width="1.5" cx="258.5" cy="-139" rx="27" ry="18"/>
<text text-anchor="start" x="244.5" y="-137.2" font-family="Times New Roman" font-size="11.00">Skor</text>
<text text-anchor="start" x="269.5" y="-137.2" font-family="Times New Roman" baseline-shift="sub" font-size="11.00">i</text>
</g>
<!-- model_test&#45;&gt;skor -->
<g id="edge8" class="edge">
<title>model_test&#45;&gt;skor</title>
<path fill="none" stroke="black" stroke-width="1.2" d="M258.5,-215.94C258.5,-202.39 258.5,-183.18 258.5,-167.47"/>
<polygon fill="black" stroke="black" stroke-width="1.2" points="262,-167.26 258.5,-157.26 255,-167.26 262,-167.26"/>
</g>
<!-- sonuc -->
<g id="node9" class="node">
<title>sonuc</title>
<path fill="#a5d6a7" stroke="#2e7d32" stroke-width="1.5" d="M357.5,-52C357.5,-52 159.5,-52 159.5,-52 153.5,-52 147.5,-46 147.5,-40 147.5,-40 147.5,-28 147.5,-28 147.5,-22 153.5,-16 159.5,-16 159.5,-16 357.5,-16 357.5,-16 363.5,-16 369.5,-22 369.5,-28 369.5,-28 369.5,-40 369.5,-40 369.5,-46 363.5,-52 357.5,-52"/>
<text text-anchor="start" x="209.5" y="-37.2" font-family="Times New Roman" font-size="11.00">Nihai Performans:</text>
<text text-anchor="start" x="155.5" y="-26.2" font-family="Times New Roman" font-weight="bold" font-size="11.00">Ortalama(Skor</text>
<text text-anchor="start" x="246.5" y="-26.2" font-family="Times New Roman" font-weight="bold" baseline-shift="sub" font-size="11.00">1</text>
<text text-anchor="start" x="253.5" y="-26.2" font-family="Times New Roman" font-weight="bold" font-size="11.00">, ..., Skor</text>
<text text-anchor="start" x="311.5" y="-26.2" font-family="Times New Roman" font-weight="bold" baseline-shift="sub" font-size="11.00">K</text>
<text text-anchor="start" x="318.5" y="-26.2" font-family="Times New Roman" font-weight="bold" font-size="11.00">) ± Std</text>
</g>
<!-- skor&#45;&gt;sonuc -->
<g id="edge9" class="edge">
<title>skor&#45;&gt;sonuc</title>
<path fill="none" stroke="black" stroke-width="1.2" stroke-dasharray="5,2" d="M258.5,-120.99C258.5,-105.04 258.5,-80.91 258.5,-62.27"/>
<polygon fill="black" stroke="black" stroke-width="1.2" points="262,-62.03 258.5,-52.03 255,-62.03 262,-62.03"/>
<text text-anchor="middle" x="290.5" y="-84" font-family="Times New Roman" font-size="10.00"> &#160;K skor topla</text>
</g>
</g>
</svg>
