<svg xmlns="http://www.w3.org/2000/svg" width="640" height="420" viewBox="0 0 640 420" role="img" aria-label="Model karmaşıklığı ile eğitim ve test hatası">
<title>Model karmaşıklığı ile eğitim ve test hatası</title>
<defs><marker id="ok" viewBox="0 0 10 10" refX="9" refY="5" markerWidth="7" markerHeight="7" orient="auto-start-reverse"><path d="M0,0 L10,5 L0,10 z" fill="#1e293b"/></marker><marker id="okm" viewBox="0 0 10 10" refX="9" refY="5" markerWidth="7" markerHeight="7" orient="auto-start-reverse"><path d="M0,0 L10,5 L0,10 z" fill="#2563eb"/></marker><marker id="okt" viewBox="0 0 10 10" refX="9" refY="5" markerWidth="7" markerHeight="7" orient="auto-start-reverse"><path d="M0,0 L10,5 L0,10 z" fill="#ea580c"/></marker></defs>
<rect x="0" y="0" width="640" height="420" rx="12" fill="#ffffff" stroke="#e2e8f0"/>
<g font-family="Segoe UI, Arial, Helvetica, sans-serif" fill="#1e293b">
<text x="320.0" y="32.0" font-size="17" text-anchor="middle" fill="#1e293b" font-weight="bold" >Yanlılık–Varyans Dengesi (Bias–Variance Trade-off)</text>
<rect x="80.0" y="60" width="258.7" height="270" fill="#ea580c" fill-opacity="0.07"/>
<rect x="338.7" y="60" width="241.3" height="270" fill="#dc2626" fill-opacity="0.06"/>
<line x1="80" y1="330" x2="590" y2="330" stroke="#1e293b" stroke-width="1.6" marker-end="url(#ok)"/>
<line x1="80" y1="330" x2="80" y2="50" stroke="#1e293b" stroke-width="1.6" marker-end="url(#ok)"/>
<text x="330.0" y="368.0" font-size="14" text-anchor="middle" fill="#1e293b" font-weight="normal" >Model karmaşıklığı (ör. ağaç derinliği, polinom derecesi, epoch sayısı) →</text>
<text x="38.0" y="195.0" font-size="14" text-anchor="middle" fill="#1e293b" font-weight="normal" transform="rotate(-90 38 195.0)">Hata</text>
<path d="M95.0,114.4 L97.4,118.2 L99.9,121.9 L102.3,125.5 L104.7,129.1 L107.2,132.5 L109.6,136.0 L112.1,139.3 L114.5,142.6 L116.9,145.9 L119.4,149.1 L121.8,152.2 L124.2,155.2 L126.7,158.2 L129.1,161.2 L131.6,164.1 L134.0,166.9 L136.4,169.7 L138.9,172.5 L141.3,175.2 L143.7,177.8 L146.2,180.4 L148.6,183.0 L151.1,185.5 L153.5,187.9 L155.9,190.3 L158.4,192.7 L160.8,195.0 L163.2,197.3 L165.7,199.5 L168.1,201.7 L170.6,203.9 L173.0,206.0 L175.4,208.1 L177.9,210.1 L180.3,212.1 L182.7,214.1 L185.2,216.0 L187.6,217.9 L190.1,219.8 L192.5,221.6 L194.9,223.4 L197.4,225.1 L199.8,226.9 L202.2,228.6 L204.7,230.2 L207.1,231.9 L209.5,233.5 L212.0,235.0 L214.4,236.6 L216.9,238.1 L219.3,239.6 L221.7,241.0 L224.2,242.5 L226.6,243.9 L229.0,245.3 L231.5,246.6 L233.9,248.0 L236.4,249.3 L238.8,250.5 L241.2,251.8 L243.7,253.0 L246.1,254.3 L248.5,255.4 L251.0,256.6 L253.4,257.8 L255.9,258.9 L258.3,260.0 L260.7,261.1 L263.2,262.2 L265.6,263.2 L268.0,264.2 L270.5,265.2 L272.9,266.2 L275.4,267.2 L277.8,268.2 L280.2,269.1 L282.7,270.0 L285.1,270.9 L287.5,271.8 L290.0,272.7 L292.4,273.5 L294.8,274.4 L297.3,275.2 L299.7,276.0 L302.2,276.8 L304.6,277.6 L307.0,278.3 L309.5,279.1 L311.9,279.8 L314.3,280.5 L316.8,281.2 L319.2,281.9 L321.7,282.6 L324.1,283.3 L326.5,284.0 L329.0,284.6 L331.4,285.2 L333.8,285.9 L336.3,286.5 L338.7,287.1 L341.2,287.7 L343.6,288.2 L346.0,288.8 L348.5,289.4 L350.9,289.9 L353.3,290.5 L355.8,291.0 L358.2,291.5 L360.7,292.0 L363.1,292.5 L365.5,293.0 L368.0,293.5 L370.4,293.9 L372.8,294.4 L375.3,294.9 L377.7,295.3 L380.2,295.8 L382.6,296.2 L385.0,296.6 L387.5,297.0 L389.9,297.4 L392.3,297.8 L394.8,298.2 L397.2,298.6 L399.6,299.0 L402.1,299.4 L404.5,299.7 L407.0,300.1 L409.4,300.4 L411.8,300.8 L414.3,301.1 L416.7,301.4 L419.1,301.8 L421.6,302.1 L424.0,302.4 L426.5,302.7 L428.9,303.0 L431.3,303.3 L433.8,303.6 L436.2,303.9 L438.6,304.2 L441.1,304.4 L443.5,304.7 L446.0,305.0 L448.4,305.2 L450.8,305.5 L453.3,305.7 L455.7,306.0 L458.1,306.2 L460.6,306.5 L463.0,306.7 L465.5,306.9 L467.9,307.2 L470.3,307.4 L472.8,307.6 L475.2,307.8 L477.6,308.0 L480.1,308.2 L482.5,308.4 L484.9,308.6 L487.4,308.8 L489.8,309.0 L492.3,309.2 L494.7,309.4 L497.1,309.6 L499.6,309.7 L502.0,309.9 L504.4,310.1 L506.9,310.3 L509.3,310.4 L511.8,310.6 L514.2,310.7 L516.6,310.9 L519.1,311.0 L521.5,311.2 L523.9,311.3 L526.4,311.5 L528.8,311.6 L531.3,311.8 L533.7,311.9 L536.1,312.0 L538.6,312.2 L541.0,312.3 L543.4,312.4 L545.9,312.5 L548.3,312.7 L550.8,312.8 L553.2,312.9 L555.6,313.0 L558.1,313.1 L560.5,313.2 L562.9,313.4 L565.4,313.5 L567.8,313.6 L570.3,313.7 L572.7,313.8 L575.1,313.9 L577.6,314.0 L580.0,314.1" fill="none" stroke="#2563eb" stroke-width="3"  stroke-linejoin="round"/>
<path d="M95.0,92.7 L97.4,96.4 L99.9,100.0 L102.3,103.6 L104.7,107.1 L107.2,110.5 L109.6,113.8 L112.1,117.1 L114.5,120.3 L116.9,123.4 L119.4,126.5 L121.8,129.5 L124.2,132.5 L126.7,135.4 L129.1,138.2 L131.6,141.0 L134.0,143.7 L136.4,146.3 L138.9,148.9 L141.3,151.4 L143.7,153.9 L146.2,156.3 L148.6,158.7 L151.1,161.0 L153.5,163.3 L155.9,165.5 L158.4,167.7 L160.8,169.8 L163.2,171.9 L165.7,173.9 L168.1,175.8 L170.6,177.8 L173.0,179.7 L175.4,181.5 L177.9,183.3 L180.3,185.0 L182.7,186.8 L185.2,188.4 L187.6,190.0 L190.1,191.6 L192.5,193.2 L194.9,194.7 L197.4,196.2 L199.8,197.6 L202.2,199.0 L204.7,200.3 L207.1,201.7 L209.5,203.0 L212.0,204.2 L214.4,205.4 L216.9,206.6 L219.3,207.8 L221.7,208.9 L224.2,210.0 L226.6,211.0 L229.0,212.1 L231.5,213.0 L233.9,214.0 L236.4,214.9 L238.8,215.8 L241.2,216.7 L243.7,217.6 L246.1,218.4 L248.5,219.2 L251.0,219.9 L253.4,220.7 L255.9,221.4 L258.3,222.1 L260.7,222.7 L263.2,223.4 L265.6,224.0 L268.0,224.6 L270.5,225.1 L272.9,225.7 L275.4,226.2 L277.8,226.7 L280.2,227.1 L282.7,227.6 L285.1,228.0 L287.5,228.4 L290.0,228.8 L292.4,229.2 L294.8,229.5 L297.3,229.8 L299.7,230.1 L302.2,230.4 L304.6,230.6 L307.0,230.9 L309.5,231.1 L311.9,231.3 L314.3,231.5 L316.8,231.7 L319.2,231.8 L321.7,231.9 L324.1,232.0 L326.5,232.1 L329.0,232.2 L331.4,232.3 L333.8,232.3 L336.3,232.3 L338.7,232.4 L341.2,232.3 L343.6,232.3 L346.0,232.3 L348.5,232.2 L350.9,232.2 L353.3,232.1 L355.8,232.0 L358.2,231.9 L360.7,231.7 L363.1,231.6 L365.5,231.5 L368.0,231.3 L370.4,231.1 L372.8,230.9 L375.3,230.7 L377.7,230.5 L380.2,230.2 L382.6,230.0 L385.0,229.7 L387.5,229.4 L389.9,229.2 L392.3,228.9 L394.8,228.5 L397.2,228.2 L399.6,227.9 L402.1,227.5 L404.5,227.2 L407.0,226.8 L409.4,226.4 L411.8,226.0 L414.3,225.6 L416.7,225.2 L419.1,224.8 L421.6,224.3 L424.0,223.9 L426.5,223.4 L428.9,223.0 L431.3,222.5 L433.8,222.0 L436.2,221.5 L438.6,221.0 L441.1,220.4 L443.5,219.9 L446.0,219.4 L448.4,218.8 L450.8,218.3 L453.3,217.7 L455.7,217.1 L458.1,216.5 L460.6,215.9 L463.0,215.3 L465.5,214.7 L467.9,214.1 L470.3,213.4 L472.8,212.8 L475.2,212.1 L477.6,211.5 L480.1,210.8 L482.5,210.1 L484.9,209.4 L487.4,208.7 L489.8,208.0 L492.3,207.3 L494.7,206.6 L497.1,205.9 L499.6,205.1 L502.0,204.4 L504.4,203.6 L506.9,202.9 L509.3,202.1 L511.8,201.3 L514.2,200.6 L516.6,199.8 L519.1,199.0 L521.5,198.2 L523.9,197.3 L526.4,196.5 L528.8,195.7 L531.3,194.9 L533.7,194.0 L536.1,193.2 L538.6,192.3 L541.0,191.4 L543.4,190.6 L545.9,189.7 L548.3,188.8 L550.8,187.9 L553.2,187.0 L555.6,186.1 L558.1,185.2 L560.5,184.3 L562.9,183.3 L565.4,182.4 L567.8,181.5 L570.3,180.5 L572.7,179.6 L575.1,178.6 L577.6,177.6 L580.0,176.7" fill="none" stroke="#dc2626" stroke-width="3"  stroke-linejoin="round"/>
<path d="M338.7,330.0 L338.7,60.0" fill="none" stroke="#16a34a" stroke-width="2" stroke-dasharray="6 4" stroke-linejoin="round"/>
<text x="338.7" y="54.0" font-size="13" text-anchor="middle" fill="#16a34a" font-weight="bold" >En iyi nokta</text>
<text x="209.4" y="82.0" font-size="13" text-anchor="middle" fill="#ea580c" font-weight="bold" >Eksik öğrenme</text>
<text x="209.4" y="100.0" font-size="12" text-anchor="middle" fill="#ea580c" font-weight="normal" >yüksek yanlılık (bias)</text>
<text x="459.4" y="82.0" font-size="13" text-anchor="middle" fill="#dc2626" font-weight="bold" >Aşırı öğrenme</text>
<text x="459.4" y="100.0" font-size="12" text-anchor="middle" fill="#dc2626" font-weight="normal" >yüksek varyans (variance)</text>
<line x1="150" y1="395" x2="180" y2="395" stroke="#2563eb" stroke-width="3"/><text x="188.0" y="400.0" font-size="13" text-anchor="start" fill="#1e293b" font-weight="normal" >Eğitim hatası</text>
<line x1="320" y1="395" x2="350" y2="395" stroke="#dc2626" stroke-width="3"/><text x="358.0" y="400.0" font-size="13" text-anchor="start" fill="#1e293b" font-weight="normal" >Doğrulama / test hatası</text>
</g>
</svg>
